 <svg  version="1.0" xmlns="http://www.w3.org/2000/svg"  width="900.000000pt" height="333.000000pt" viewBox="0 0 900.000000 333.000000"  preserveAspectRatio="xMidYMid meet">  <g transform="translate(0.000000,333.000000) scale(0.100000,-0.100000)" fill="#f7e308" stroke="none"> <path d="M844 3205 c-79 -15 -103 -26 -152 -70 -49 -44 -67 -93 -117 -307 -8 -35 -21 -92 -29 -128 -37 -158 -46 -199 -61 -270 -9 -41 -23 -100 -30 -130 -7 -30 -21 -91 -31 -135 -9 -44 -21 -93 -25 -109 -5 -16 -9 -37 -9 -47 0 -22 15 -20 160 18 52 14 111 29 130 33 55 12 131 31 179 46 46 14 111 19 111 8 0 -4 -5 -25 -11 -48 -11 -41 -29 -113 -55 -218 -8 -32 -21 -86 -30 -120 -8 -35 -22 -90 -30 -123 -37 -149 -44 -165 -71 -171 -26 -7 -224 3 -232 12 -7 7 17 126 65 320 19 76 13 88 -36 73 -49 -15 -148 -39 -195 -47 -33 -6 -43 -13 -57 -42 -9 -19 -19 -53 -23 -75 -4 -22 -13 -65 -22 -95 -70 -255 -75 -297 -47 -353 37 -71 100 -86 354 -86 262 0 355 20 412 87 23 27 30 42 63 132 14 40 34 117 45 175 8 41 22 103 45 190 21 79 37 147 45 190 4 22 13 63 20 90 6 28 18 75 25 105 8 30 21 87 30 125 9 39 22 93 30 120 21 79 26 123 16 130 -6 3 -38 -2 -73 -10 -35 -9 -79 -20 -98 -24 -19 -5 -71 -19 -115 -30 -69 -19 -142 -37 -234 -58 -22 -6 -23 -4 -19 38 3 24 10 71 17 104 22 113 40 200 56 271 8 40 15 83 15 96 0 43 15 48 156 48 148 0 152 -2 129 -66 -8 -22 -14 -51 -15 -65 0 -14 -7 -46 -16 -72 -8 -25 -14 -56 -12 -69 3 -21 7 -23 47 -19 24 1 62 9 84 17 22 8 51 14 64 14 14 0 40 7 59 16 27 13 35 24 39 53 7 38 28 131 51 222 19 74 18 154 -2 189 -24 39 -59 56 -141 69 -95 15 -370 12 -459 -4z"/> <path d="M1616 3198 c-25 -41 -73 -237 -63 -262 5 -13 23 -16 117 -16 105 0 110 -1 110 -21 0 -20 -29 -151 -65 -289 -8 -30 -21 -86 -30 -125 -9 -38 -23 -92 -30 -120 -18 -67 -36 -141 -46 -190 -4 -22 -13 -60 -19 -85 -21 -80 -39 -152 -70 -285 -17 -71 -37 -155 -45 -185 -8 -30 -21 -86 -30 -125 -16 -68 -28 -117 -56 -220 -7 -27 -13 -68 -13 -90 l-1 -40 121 -3 c89 -2 124 1 131 10 12 16 48 150 88 323 9 39 23 93 31 121 8 28 14 61 14 73 0 12 5 31 11 42 6 11 14 41 19 67 5 26 14 67 20 92 18 70 38 149 55 225 22 95 43 180 61 241 8 28 14 59 14 69 0 9 6 38 14 64 15 49 33 119 47 186 15 72 39 169 53 215 l13 45 104 3 c107 3 129 11 129 45 0 11 7 45 16 76 9 31 22 76 29 101 24 84 43 80 -360 80 l-355 0 -14 -22z"/> <path d="M2685 3205 c-91 -20 -134 -47 -195 -123 -41 -52 -67 -121 -100 -267 -5 -22 -16 -67 -24 -100 -8 -33 -22 -91 -31 -130 -9 -38 -24 -97 -32 -130 -8 -33 -21 -85 -28 -115 -20 -85 -36 -150 -50 -205 -7 -27 -21 -86 -30 -130 -10 -44 -24 -99 -32 -123 -7 -23 -13 -51 -13 -61 0 -9 -6 -37 -14 -62 -16 -53 -35 -129 -47 -184 -11 -55 -34 -152 -47 -200 -33 -120 -43 -174 -40 -200 l3 -30 119 -3 c126 -3 146 3 146 42 0 13 6 42 14 67 7 24 21 78 30 119 10 41 24 103 32 137 8 35 21 93 30 130 8 38 20 86 26 108 6 22 15 58 19 80 23 116 41 181 53 193 24 24 309 62 320 43 6 -9 -6 -76 -29 -166 -7 -27 -20 -84 -29 -125 -29 -124 -63 -274 -91 -390 -7 -30 -21 -89 -30 -131 -27 -112 -29 -110 121 -107 l127 3 14 45 c7 25 18 65 23 90 18 88 38 169 72 293 6 23 15 60 19 82 5 22 15 67 23 100 8 33 22 92 31 130 16 65 26 109 55 225 7 25 18 68 26 96 8 28 14 59 14 69 0 9 6 38 14 64 16 50 34 123 47 186 4 22 13 60 19 85 7 25 19 72 27 105 8 33 21 85 28 115 30 117 35 182 21 244 -18 78 -54 113 -132 132 -78 18 -396 18 -479 -1z m324 -274 c12 -8 11 -18 -2 -72 -8 -35 -23 -100 -32 -144 -10 -44 -23 -107 -31 -140 -7 -33 -16 -77 -19 -98 -8 -49 -31 -62 -135 -77 -47 -6 -109 -16 -139 -21 -30 -5 -60 -9 -68 -9 -16 0 -18 56 -3 95 5 14 14 49 19 78 5 29 14 70 19 92 6 22 18 76 27 120 25 118 36 159 47 173 12 14 294 17 317 3z"/> <path d="M3633 3208 c-9 -15 -29 -83 -43 -148 -5 -25 -17 -74 -26 -110 -8 -36 -22 -90 -29 -120 -18 -76 -35 -146 -50 -205 -33 -130 -38 -152 -45 -185 -9 -44 -28 -120 -45 -185 -18 -69 -36 -142 -46 -190 -4 -22 -15 -67 -23 -100 -9 -33 -22 -87 -30 -120 -32 -139 -67 -282 -76 -311 -6 -16 -14 -50 -20 -75 -20 -94 -38 -166 -50 -204 -6 -22 -10 -56 -8 -75 l3 -35 119 -3 c73 -2 123 1 131 8 7 6 15 25 17 43 3 18 11 55 17 82 27 106 41 163 56 230 9 39 21 88 27 110 6 22 15 58 19 80 10 52 27 126 44 195 8 30 16 67 19 81 6 29 27 42 50 33 16 -6 27 -52 51 -224 8 -63 20 -144 26 -180 6 -36 14 -98 19 -138 5 -40 14 -98 19 -130 6 -31 13 -83 16 -115 5 -42 11 -60 26 -67 11 -6 73 -9 146 -8 l128 3 -3 65 c-1 36 -9 103 -17 150 -8 47 -21 130 -30 185 -15 93 -30 181 -55 330 -6 33 -15 96 -20 140 -10 71 -9 81 7 92 9 7 26 13 37 13 12 1 32 7 46 15 14 8 35 14 47 15 12 0 37 6 55 14 18 8 55 20 82 28 l49 13 17 65 c10 36 26 101 35 145 17 82 36 167 60 265 7 30 20 91 30 135 9 44 23 102 31 129 21 73 18 172 -6 206 -42 59 -123 70 -496 70 -231 0 -305 -3 -311 -12z m494 -315 c-4 -27 -13 -75 -21 -108 -21 -85 -44 -188 -62 -270 -8 -41 -22 -76 -33 -86 -10 -8 -45 -21 -77 -28 -33 -7 -87 -19 -120 -28 -34 -8 -73 -13 -85 -11 -27 4 -28 21 -5 103 22 81 38 147 46 190 4 22 13 63 20 90 16 66 41 167 46 183 2 9 41 12 150 12 l147 0 -6 -47z"/> <path d="M5115 3188 c-7 -18 -16 -51 -20 -73 -4 -22 -13 -61 -22 -87 -8 -26 -13 -60 -11 -75 l3 -28 113 -3 c80 -2 112 -6 112 -15 0 -16 -47 -223 -68 -302 -11 -41 -32 -128 -58 -245 -9 -36 -19 -79 -25 -96 -5 -16 -13 -50 -19 -75 -5 -24 -16 -71 -24 -104 -19 -79 -45 -187 -61 -255 -7 -30 -18 -75 -24 -100 -7 -25 -18 -70 -26 -100 -7 -30 -19 -77 -25 -105 -7 -27 -16 -66 -20 -85 -5 -19 -16 -66 -25 -105 -35 -147 -38 -162 -32 -178 5 -15 24 -17 131 -17 l124 0 21 69 c12 38 21 78 21 88 0 11 6 39 14 64 16 53 35 129 47 184 4 22 16 69 24 105 9 36 23 90 30 120 25 105 37 153 75 305 7 28 16 68 21 90 4 22 13 60 19 85 7 25 19 72 27 105 8 33 21 83 29 111 8 28 14 59 14 69 0 10 6 41 14 69 8 28 21 78 30 111 8 33 23 92 34 130 l19 70 108 5 c82 4 110 9 115 20 9 18 30 98 40 155 4 22 12 51 17 65 5 14 8 33 5 43 -3 16 -29 17 -368 17 l-365 0 -14 -32z"/> <path d="M5976 3204 c-9 -8 -16 -23 -16 -31 0 -9 -6 -39 -14 -67 -8 -28 -22 -80 -31 -116 -9 -36 -23 -87 -31 -114 -8 -26 -14 -57 -14 -68 0 -10 -6 -40 -14 -66 -17 -58 -36 -134 -47 -187 -4 -22 -15 -67 -23 -100 -9 -33 -22 -87 -30 -120 -7 -33 -18 -78 -24 -100 -6 -22 -18 -71 -27 -110 -9 -38 -23 -97 -31 -130 -9 -33 -22 -85 -29 -115 -7 -30 -20 -82 -28 -115 -28 -113 -39 -160 -47 -195 -8 -35 -30 -125 -55 -230 -8 -30 -19 -72 -25 -93 -6 -21 -10 -52 -8 -70 l3 -32 119 -3 c73 -2 123 1 131 8 7 6 15 25 18 43 3 18 12 59 20 92 8 33 20 83 27 110 6 28 16 65 21 82 6 18 14 54 18 80 5 27 14 71 21 98 6 28 18 75 25 105 8 30 21 82 29 116 9 33 16 69 16 81 0 26 33 55 53 47 20 -7 26 -24 36 -116 5 -40 14 -107 21 -148 38 -245 59 -392 70 -482 14 -122 8 -118 164 -118 95 0 137 4 144 13 7 8 7 28 2 57 -10 50 -32 184 -55 335 -9 55 -23 143 -31 195 -8 52 -20 120 -25 150 -16 87 -28 192 -22 207 3 7 17 16 32 19 14 3 44 12 66 19 22 7 67 20 100 30 135 39 128 34 146 105 9 36 24 99 33 140 10 41 23 100 30 130 8 30 21 91 31 135 16 77 24 109 59 257 9 36 16 96 16 132 0 61 -2 67 -35 99 -50 48 -125 57 -482 57 -252 0 -294 -2 -307 -16z m491 -311 c-6 -52 -20 -116 -61 -284 -14 -59 -26 -117 -26 -128 0 -35 -40 -66 -105 -80 -33 -7 -86 -20 -118 -27 -32 -8 -70 -14 -84 -14 -23 0 -25 3 -21 38 3 20 10 60 17 87 7 28 19 75 26 105 7 30 19 78 25 105 7 28 16 68 21 90 7 36 25 111 35 143 2 9 41 12 150 12 l146 0 -5 -47z"/> <path d="M7173 3203 c-70 -24 -141 -116 -157 -204 -4 -19 -13 -56 -21 -84 -16 -60 -35 -136 -46 -190 -4 -22 -15 -67 -23 -100 -9 -33 -22 -87 -30 -120 -20 -88 -65 -271 -82 -340 -9 -33 -22 -87 -30 -120 -9 -33 -22 -83 -30 -111 -8 -28 -14 -59 -14 -68 0 -9 -6 -38 -14 -64 -8 -26 -28 -108 -45 -182 -18 -74 -38 -157 -45 -185 -39 -150 -56 -223 -59 -265 l-2 -25 316 -3 c260 -2 318 0 328 12 14 16 55 197 55 246 l1 35 -167 5 c-91 3 -170 8 -174 13 -7 7 -1 39 30 167 8 30 22 91 31 135 10 44 23 103 30 130 7 28 18 76 25 107 7 32 21 65 30 73 9 8 50 19 91 25 41 5 88 14 103 20 15 5 42 10 60 10 41 0 139 29 148 44 4 6 8 22 8 36 0 14 7 57 16 95 27 123 31 144 26 150 -3 3 -21 5 -41 5 -32 0 -73 -6 -266 -39 -27 -5 -54 -5 -59 -1 -9 9 -4 62 14 130 28 107 38 150 55 225 9 44 25 103 34 130 l16 50 190 5 190 5 3 30 c2 17 9 53 17 80 16 59 22 126 11 143 -12 19 -468 15 -523 -5z"/> <path d="M7992 3211 c-13 -8 -21 -32 -47 -141 -7 -30 -18 -75 -24 -100 -18 -66 -38 -145 -56 -225 -9 -38 -23 -95 -30 -125 -8 -30 -21 -86 -30 -125 -9 -38 -22 -92 -30 -120 -20 -79 -66 -266 -75 -305 -7 -34 -17 -73 -45 -190 -8 -30 -21 -86 -30 -125 -9 -38 -23 -97 -31 -130 -35 -139 -44 -174 -59 -240 -9 -38 -23 -93 -31 -122 -9 -28 -14 -66 -12 -85 l3 -33 124 0 c100 0 125 3 131 15 5 8 16 51 25 95 9 44 21 94 26 112 6 17 14 56 19 85 12 73 30 111 120 248 27 41 68 105 91 143 23 37 45 67 49 67 11 0 37 -129 44 -213 3 -37 10 -93 15 -125 14 -77 30 -196 42 -312 7 -69 14 -98 26 -107 11 -9 57 -13 139 -13 142 0 140 -1 118 102 -7 35 -13 79 -13 98 -1 19 -7 80 -15 135 -9 55 -22 153 -31 218 -38 296 -46 356 -57 422 -19 121 -22 244 -6 263 8 9 18 24 22 32 3 8 14 27 24 42 9 15 37 59 62 98 25 39 53 83 62 98 10 15 22 36 28 47 6 11 19 34 30 50 10 17 25 40 32 52 7 12 33 54 58 93 151 238 181 291 178 308 -3 15 -21 17 -145 20 l-141 3 -47 -73 c-26 -40 -56 -85 -66 -100 -11 -15 -19 -29 -19 -32 0 -3 -19 -33 -42 -68 -24 -35 -48 -73 -55 -84 -7 -10 -30 -48 -52 -84 -22 -36 -65 -103 -95 -150 -31 -47 -56 -91 -56 -97 0 -7 -7 -13 -15 -13 -10 0 -15 10 -15 30 0 17 7 47 15 67 8 19 15 45 15 56 0 11 6 43 14 71 8 28 22 80 31 116 9 36 23 87 31 114 8 26 14 55 14 63 0 8 7 36 16 62 8 27 14 64 12 82 l-3 34 -115 3 c-63 1 -121 -2 -128 -7z"/> <path d="M123 938 c-9 -12 -20 -49 -26 -88 -2 -12 13 -16 63 -20 65 -5 65 -5 63 -35 0 -16 -8 -55 -16 -85 -8 -30 -29 -107 -46 -170 -17 -63 -40 -146 -51 -185 -11 -38 -23 -83 -26 -100 -4 -16 -12 -49 -20 -73 -23 -70 -21 -72 45 -72 l58 0 17 43 c9 23 16 49 16 56 0 8 7 39 16 70 24 85 66 237 89 326 8 28 21 75 29 106 9 31 16 63 16 72 0 33 29 47 100 47 72 0 80 5 80 54 0 12 5 27 11 33 28 28 -5 33 -205 33 -151 0 -206 -3 -213 -12z"/> <path d="M600 931 c-5 -11 -10 -27 -10 -37 0 -9 -7 -37 -15 -63 -8 -25 -21 -71 -29 -101 -8 -30 -21 -82 -31 -115 -25 -94 -63 -234 -89 -335 -10 -36 -24 -85 -32 -109 -8 -26 -11 -48 -6 -53 5 -5 33 -8 63 -6 60 3 58 0 94 138 32 121 51 174 66 181 121 63 141 59 117 -23 -9 -29 -23 -82 -33 -118 -9 -36 -23 -87 -32 -113 -19 -61 -12 -69 58 -65 63 3 47 -30 126 268 8 30 22 80 30 110 8 30 21 78 28 105 21 79 42 155 59 216 9 31 16 65 16 75 0 11 5 25 11 31 21 21 -2 33 -61 33 -57 0 -60 -1 -65 -27 -3 -16 -12 -50 -20 -78 -8 -27 -21 -77 -30 -110 -9 -33 -18 -66 -20 -72 -5 -16 -132 -76 -144 -69 -9 6 -2 58 17 116 6 19 18 64 27 100 9 36 20 78 25 94 5 16 7 33 4 37 -3 5 -30 9 -59 9 -43 0 -56 -4 -65 -19z"/> <path d="M1142 938 c-5 -7 -12 -26 -14 -43 -3 -16 -15 -66 -28 -110 -12 -44 -26 -96 -31 -115 -10 -46 -33 -130 -54 -205 -9 -33 -23 -82 -30 -110 -7 -27 -23 -86 -35 -130 -12 -44 -23 -87 -24 -95 -1 -13 25 -15 167 -18 l167 -2 9 23 c5 13 11 39 13 58 l3 34 -95 5 -95 5 3 45 c3 48 28 128 46 146 6 6 36 21 66 34 142 58 158 68 174 113 35 100 29 115 -33 86 -120 -57 -154 -70 -161 -63 -9 9 -5 30 23 136 27 99 24 97 138 100 l100 3 18 52 c10 29 16 55 13 58 -3 3 -78 5 -167 5 -118 0 -165 -3 -173 -12z"/> <path d="M1977 925 c-29 -25 -53 -84 -82 -195 -9 -36 -23 -87 -30 -115 -8 -27 -20 -75 -28 -105 -28 -108 -50 -186 -63 -230 -19 -62 -21 -134 -5 -154 11 -13 38 -16 161 -16 l148 0 30 30 c32 32 44 65 119 350 8 30 21 78 28 105 8 28 21 79 31 115 9 36 23 85 30 109 19 61 18 87 -6 111 -18 18 -33 20 -162 20 -137 -1 -144 -2 -171 -25z m201 -119 c2 -11 -3 -42 -11 -70 -9 -28 -23 -77 -31 -109 -9 -31 -22 -81 -30 -110 -7 -28 -21 -81 -31 -117 -9 -36 -25 -87 -34 -115 l-16 -50 -60 0 -60 0 3 45 c1 25 9 63 16 85 8 22 22 69 31 105 22 86 40 153 59 220 8 30 18 68 21 85 11 49 23 56 84 53 46 -2 56 -6 59 -22z"/> <path d="M2492 938 c-7 -7 -12 -23 -12 -36 0 -13 -7 -47 -16 -76 -20 -64 -37 -123 -59 -206 -9 -36 -23 -90 -31 -120 -33 -122 -43 -158 -59 -220 -9 -36 -24 -85 -32 -108 -19 -55 -11 -64 58 -60 54 3 54 3 66 43 16 55 40 143 50 185 11 46 38 52 47 9 3 -17 6 -50 7 -73 0 -22 6 -68 13 -101 l13 -60 61 -3 c72 -3 70 -10 48 118 -23 129 -35 231 -30 244 4 11 93 56 112 56 15 0 57 52 69 86 6 16 18 54 26 84 9 30 23 79 31 109 39 133 28 141 -185 141 -115 0 -169 -4 -177 -12z m221 -148 c0 -19 -7 -57 -15 -85 -14 -47 -18 -52 -79 -83 -73 -37 -92 -36 -83 5 13 59 37 139 50 171 14 32 15 33 72 30 l57 -3 -2 -35z"/> <path d="M2970 931 c-5 -11 -10 -27 -10 -37 0 -9 -6 -37 -14 -63 -16 -50 -35 -119 -61 -221 -10 -36 -24 -90 -32 -120 -8 -30 -20 -77 -27 -105 -35 -132 -49 -183 -62 -218 -8 -21 -12 -43 -9 -48 9 -14 111 -11 123 4 6 6 13 26 17 42 3 17 13 55 22 85 8 30 21 79 29 108 8 28 20 76 28 105 8 28 22 81 32 117 43 166 71 268 85 316 15 52 13 54 -51 54 -48 0 -61 -4 -70 -19z"/> <path d="M3266 918 c-31 -32 -41 -58 -80 -201 -23 -87 -48 -179 -63 -237 -28 -103 -42 -155 -57 -209 -9 -29 -16 -70 -16 -91 0 -65 12 -70 177 -70 l146 0 31 33 c33 36 48 79 112 327 9 36 23 87 31 113 10 31 12 52 6 58 -12 12 -222 -84 -227 -103 -2 -7 -11 -35 -20 -62 -19 -57 -11 -71 29 -56 15 6 30 8 33 6 5 -5 -7 -61 -30 -139 -15 -51 -28 -59 -90 -55 -52 3 -53 3 -51 33 3 28 14 75 48 195 7 25 20 74 29 110 10 36 24 85 32 110 8 25 14 54 14 65 0 11 9 35 20 53 19 31 23 33 73 30 l52 -3 -1 -52 c-1 -29 2 -53 7 -53 5 0 33 11 64 25 62 27 85 63 85 134 0 67 -11 71 -177 71 l-145 0 -32 -32z"/> <path d="M3794 942 c-6 -4 -17 -29 -23 -57 -6 -27 -17 -72 -25 -100 -33 -119 -59 -212 -66 -240 -4 -16 -18 -66 -30 -110 -12 -44 -26 -96 -31 -115 -15 -65 -32 -125 -45 -163 -17 -46 -11 -50 67 -45 51 3 53 4 61 38 5 19 15 58 23 85 8 28 21 77 30 110 8 33 22 81 30 106 8 26 15 54 15 64 0 10 7 38 14 64 8 25 22 71 30 101 8 30 22 80 30 110 26 95 36 137 36 149 0 12 -98 15 -116 3z"/> <path d="M4062 937 c-6 -6 -13 -26 -17 -42 -3 -17 -12 -52 -20 -80 -8 -27 -22 -79 -31 -115 -9 -36 -23 -85 -29 -110 -12 -42 -25 -90 -62 -230 -23 -85 -44 -162 -54 -196 -16 -53 -14 -55 53 -52 57 3 63 5 70 28 3 14 14 52 23 85 9 33 23 81 31 106 8 26 14 54 14 64 0 10 7 38 14 64 8 25 22 73 31 106 9 33 23 80 30 105 7 25 16 61 19 80 11 64 30 80 93 80 l55 0 -5 -52 c-3 -29 -12 -75 -20 -103 -8 -27 -25 -86 -37 -130 -12 -44 -29 -105 -37 -135 -8 -30 -19 -71 -24 -90 -4 -19 -15 -62 -24 -95 -34 -121 -35 -115 26 -115 65 0 76 6 84 45 3 17 12 53 20 80 8 28 21 79 31 115 23 89 43 165 61 230 8 30 22 80 30 110 8 30 21 75 29 100 21 67 18 113 -9 138 -19 18 -35 22 -94 22 -50 0 -76 -4 -87 -15 -8 -8 -19 -15 -24 -15 -6 0 -12 7 -16 15 -7 19 -109 21 -124 2z"/> <path d="M4622 925 c-33 -28 -50 -76 -117 -330 -8 -33 -22 -82 -29 -110 -8 -27 -22 -79 -31 -115 -31 -121 -46 -175 -55 -206 -17 -53 -15 -55 52 -52 70 3 60 -9 94 118 53 201 48 193 114 223 33 15 65 27 70 27 15 0 12 -46 -6 -109 -9 -31 -23 -81 -31 -111 -8 -30 -19 -69 -24 -86 -18 -62 -15 -65 53 -62 62 3 62 3 71 38 5 19 15 58 22 85 8 28 21 79 31 115 9 36 22 85 29 110 7 25 20 74 30 110 27 105 46 172 61 221 21 69 19 136 -5 149 -11 5 -82 10 -160 10 -134 0 -141 -1 -169 -25z m199 -107 c3 -29 -3 -66 -19 -116 -15 -50 -19 -54 -79 -82 -35 -17 -68 -30 -73 -30 -15 0 -12 35 6 94 9 28 21 67 26 86 16 53 25 60 84 60 36 0 54 -4 55 -12z"/> <path d="M5141 936 c-7 -8 -15 -31 -18 -53 -3 -21 -10 -46 -15 -55 -5 -10 -13 -37 -18 -60 -10 -50 -29 -121 -60 -233 -12 -44 -26 -93 -30 -110 -4 -16 -18 -66 -30 -110 -12 -44 -26 -96 -31 -115 -4 -19 -11 -47 -15 -63 l-6 -28 158 3 159 3 7 35 c16 81 22 74 -72 80 -104 6 -100 -16 -35 225 8 28 20 75 29 105 8 30 21 80 29 110 9 30 23 84 32 120 9 36 21 79 26 95 20 57 18 60 -42 63 -40 2 -59 -1 -68 -12z"/> <path d="M5943 920 c-31 -30 -43 -62 -87 -230 -22 -83 -41 -150 -62 -223 -9 -31 -13 -64 -10 -73 5 -13 9 -13 33 -1 16 8 44 21 63 29 34 14 63 27 140 61 42 19 53 11 41 -28 -6 -17 -17 -59 -26 -95 -9 -36 -23 -80 -31 -98 -14 -32 -15 -33 -72 -30 l-57 3 1 35 c0 19 4 43 8 53 11 24 -7 22 -75 -9 -61 -29 -73 -45 -84 -117 -6 -38 -4 -48 14 -66 19 -19 32 -21 165 -21 l144 0 29 30 c33 34 43 63 107 302 8 29 21 78 30 108 8 30 18 72 22 93 5 33 4 37 -14 37 -11 0 -46 -13 -78 -29 -96 -46 -173 -75 -181 -67 -4 3 -1 28 6 54 8 26 17 63 21 82 4 19 14 52 23 73 l16 38 58 -3 58 -3 -3 -52 c-4 -54 2 -61 36 -44 9 4 34 16 56 27 43 21 55 44 57 114 3 78 -1 80 -170 80 l-147 0 -31 -30z"/> <path d="M6462 933 c-6 -10 -13 -34 -17 -53 -3 -19 -12 -55 -20 -80 -12 -43 -32 -115 -62 -230 -8 -30 -21 -79 -29 -107 -8 -29 -21 -77 -28 -105 -24 -89 -47 -171 -57 -203 -5 -16 -5 -33 -1 -37 5 -5 82 -7 173 -6 l164 3 6 35 c4 19 10 45 14 57 7 22 5 22 -91 25 -115 3 -117 6 -89 97 30 97 33 100 135 143 118 51 139 64 146 97 3 14 10 43 16 64 6 20 9 39 6 42 -3 3 -51 -15 -108 -40 -57 -25 -107 -45 -113 -45 -14 0 8 98 43 190 l16 45 104 5 103 5 13 35 c7 19 13 45 13 58 1 22 1 22 -164 22 -146 0 -165 -2 -173 -17z"/> <path d="M6889 923 c-13 -35 -37 -121 -54 -193 -7 -30 -18 -68 -23 -85 -5 -16 -17 -59 -27 -95 -9 -36 -23 -87 -30 -115 -8 -27 -21 -79 -30 -115 -9 -36 -23 -85 -30 -110 -8 -25 -15 -56 -17 -70 -3 -24 0 -25 55 -28 54 -3 58 -2 68 25 9 25 48 169 63 236 11 46 22 23 40 -85 33 -191 24 -173 85 -176 30 -2 58 1 62 5 5 5 4 35 -1 68 -5 33 -16 103 -25 156 -23 142 -26 132 63 176 70 34 79 43 101 88 13 28 28 66 32 85 4 19 17 74 29 121 21 83 21 88 5 113 l-17 26 -169 0 -169 0 -11 -27z m226 -103 c7 -11 -9 -95 -27 -142 -7 -20 -28 -36 -74 -58 -35 -16 -69 -30 -74 -30 -12 0 -13 18 -1 56 5 16 17 58 27 94 9 36 22 71 27 78 12 15 113 16 122 2z"/> <path d="M7378 943 c-6 -11 -34 -107 -54 -183 -9 -36 -22 -85 -29 -110 -13 -47 -37 -136 -62 -230 -29 -108 -45 -166 -59 -210 -8 -25 -14 -58 -14 -73 0 -28 1 -28 57 -25 l57 3 17 55 c10 30 25 80 33 110 8 30 22 80 30 110 8 30 22 84 31 120 26 101 69 258 91 330 7 25 15 59 16 75 3 30 3 30 -54 33 -31 2 -58 -1 -60 -5z"/> <path d="M7646 938 c-2 -7 -11 -38 -19 -68 -9 -30 -24 -84 -33 -120 -9 -36 -23 -85 -29 -110 -12 -42 -25 -90 -62 -230 -29 -108 -45 -166 -59 -210 -30 -94 -37 -90 151 -90 l165 0 11 28 c6 15 13 42 16 60 l6 32 -96 0 c-53 0 -98 4 -102 9 -13 23 40 190 64 198 9 3 30 11 46 19 17 7 62 27 100 45 l71 31 18 65 c28 98 29 98 -162 5 -21 -10 -36 -12 -42 -6 -10 10 -9 15 24 119 9 28 16 58 16 67 0 38 27 48 130 48 104 0 110 3 110 54 0 12 5 27 11 33 27 27 -4 33 -167 33 -123 0 -166 -3 -168 -12z"/> <path d="M8097 921 c-34 -30 -46 -60 -83 -201 -20 -78 -42 -159 -60 -220 -25 -89 -27 -110 -9 -110 9 0 42 11 73 26 31 14 73 32 92 40 19 9 48 22 63 30 24 12 29 12 34 -1 8 -23 -20 -146 -50 -218 l-16 -38 -58 3 -58 3 3 53 c2 30 0 52 -6 52 -27 0 -131 -63 -136 -83 -10 -38 -6 -123 6 -135 8 -8 58 -12 160 -12 l147 0 36 37 c19 20 35 43 35 51 0 8 6 35 14 61 8 25 22 72 30 104 31 114 44 163 60 218 27 95 20 119 -27 94 -85 -44 -219 -97 -227 -89 -11 12 17 143 46 212 14 32 15 33 72 30 l57 -3 -1 -35 c0 -19 -4 -43 -8 -52 -9 -20 11 -24 42 -9 9 4 33 16 53 25 41 20 57 47 66 112 4 35 2 49 -12 64 -16 18 -31 20 -161 20 l-143 0 -34 -29z"/> </g> </svg> 