<svg xmlns="http://www.w3.org/2000/svg" viewBox="0 0 200 80" fill="none">
  <g transform="translate(100,40)">
    <!-- Viking helmet silhouette -->
    <path d="M-20,-18 C-20,-28 -10,-35 0,-35 C10,-35 20,-28 20,-18 L20,-8 C20,-2 16,2 12,2 L-12,2 C-16,2 -20,-2 -20,-8 Z" fill="#C4A44A" opacity="0.9"/>
    <!-- Horns -->
    <path d="M-20,-14 C-28,-22 -35,-28 -38,-20 C-36,-15 -30,-10 -20,-10" fill="#C4A44A" opacity="0.85"/>
    <path d="M20,-14 C28,-22 35,-28 38,-20 C36,-15 30,-10 20,-10" fill="#C4A44A" opacity="0.85"/>
    <!-- Eye slit -->
    <rect x="-14" y="-12" width="28" height="4" rx="1" fill="#1a1a2e" opacity="0.8"/>
    <!-- Nose guard -->
    <rect x="-1.5" y="-16" width="3" height="16" rx="1" fill="#A08830" opacity="0.7"/>
  </g>
  <!-- Text -->
  <text x="100" y="72" text-anchor="middle" font-family="serif" font-size="14" font-weight="bold" letter-spacing="4" fill="#C4A44A">VIKINGS</text>
</svg>
