<svg xmlns="http://www.w3.org/2000/svg" width="605" height="88" viewBox="0 0 605 88" version="1.1">
	<path d="M 556 1.732 C 543.475 3.005, 530.680 10.889, 523.919 21.500 L 522.007 24.500 522.004 14.250 L 522 4 505.500 4 L 489 4 489 16 L 489 28 485.500 28 L 482 28 482 16 L 482 4 454.658 4 L 427.315 4 424.302 13.750 L 421.289 23.500 415.917 12.750 C 412.962 6.837, 410.278 2, 409.953 2 C 409.629 2, 407.144 6.703, 404.431 12.452 C 399.926 22, 398 24.829, 398 21.896 C 398 21.289, 396.822 17.014, 395.382 12.396 L 392.764 4 375.275 4 C 361.708 4, 357.888 4.280, 358.241 5.250 C 358.492 5.937, 364.662 24.387, 371.953 46.250 L 385.208 86 393.468 86 L 401.728 86 403.536 81.250 C 404.530 78.638, 406.425 74.050, 407.746 71.055 L 410.147 65.611 414.349 75.555 L 418.550 85.500 426.679 85.789 L 434.808 86.078 441.654 65.789 L 448.500 45.500 448.771 65.750 L 449.041 86 465.521 86 L 482 86 482 73.500 L 482 61 485.500 61 L 489 61 489 73.500 L 489 86 505.500 86 L 522 86 522.059 75.750 C 522.107 67.375, 522.336 65.858, 523.309 67.455 C 526.874 73.307, 534.825 80.298, 541.877 83.782 C 549.251 87.425, 549.637 87.500, 560.974 87.500 C 572.136 87.500, 572.792 87.379, 579.523 84.065 C 588.475 79.657, 595.658 72.474, 600.065 63.521 C 603.376 56.794, 603.500 56.126, 603.500 45.021 C 603.500 34.128, 603.325 33.131, 600.291 26.726 C 592.391 10.046, 574.351 -0.134, 556 1.732 M 548.836 7.854 C 545.721 8.886, 541.613 10.694, 539.708 11.872 C 534.457 15.117, 528.130 22.490, 525.160 28.825 C 522.809 33.841, 522.500 35.720, 522.500 45 C 522.500 54.440, 522.779 56.067, 525.261 61.121 C 533.459 77.816, 551.896 87.018, 569.115 83.011 C 580.779 80.297, 591.597 71.399, 596.786 60.253 C 599.092 55.299, 599.466 53.180, 599.482 45 C 599.498 36.441, 599.195 34.856, 596.418 28.997 C 592.544 20.823, 585.786 14.005, 577.530 9.940 C 569.153 5.816, 557.535 4.971, 548.836 7.854 M 364.075 8.720 C 364.116 9.149, 369.629 25.700, 376.325 45.500 L 388.500 81.500 393.485 81.500 L 398.470 81.500 403.985 68.264 C 407.018 60.984, 409.733 55.022, 410.018 55.014 C 410.303 55.006, 413.029 60.962, 416.076 68.250 L 421.616 81.500 425.944 81.814 C 428.324 81.987, 430.660 81.740, 431.134 81.266 C 431.608 80.792, 436.693 66.475, 442.434 49.452 L 452.872 18.500 453.186 50 L 453.500 81.500 465.500 81.500 L 477.500 81.500 477.554 69 L 477.608 56.500 485.274 56.208 L 492.940 55.917 493.220 68.708 L 493.500 81.500 505.500 81.500 L 517.500 81.500 517.500 45 L 517.500 8.500 505.500 8.500 L 493.500 8.500 493.219 20.750 L 492.938 33 485.219 33.001 L 477.500 33.003 477.500 20.751 L 477.500 8.500 454.031 8.500 L 430.561 8.500 426.394 21.989 L 422.227 35.478 416.384 23.739 C 413.170 17.283, 410.280 12, 409.962 12 C 409.645 12, 406.832 17.235, 403.712 23.632 C 400.592 30.030, 397.810 34.643, 397.531 33.882 C 397.252 33.122, 395.315 27.100, 393.227 20.500 L 389.430 8.500 376.715 8.220 C 369.722 8.066, 364.034 8.291, 364.075 8.720 M 549.844 11.336 C 536.470 16.326, 528.688 25.207, 525.911 38.652 C 522.841 53.518, 531.482 70.118, 545.780 76.819 C 550.727 79.138, 552.783 79.500, 561 79.499 C 569.516 79.498, 571.098 79.195, 576.278 76.573 C 583.097 73.121, 590.275 65.811, 593.320 59.217 C 595.074 55.419, 595.499 52.649, 595.499 45 C 595.499 33.637, 593.651 28.748, 586.445 21.045 C 579.574 13.699, 572.727 10.675, 562.081 10.286 C 556.553 10.083, 552.199 10.457, 549.844 11.336 M 380.184 45.056 C 390.910 77.218, 391.275 78.104, 393.694 77.806 C 395.877 77.537, 396.959 75.666, 402.545 62.500 C 406.045 54.250, 408.929 46.938, 408.954 46.250 C 409.005 44.862, 411 44.489, 411 45.867 C 411 46.345, 413.978 53.770, 417.618 62.367 C 423.523 76.317, 424.492 78, 426.618 78 C 427.928 78, 429 77.830, 429 77.621 C 429 77.413, 433.950 62.693, 440 44.909 C 446.050 27.126, 451 12.447, 451 12.288 C 451 12.130, 447.048 12, 442.218 12 L 433.435 12 428.581 27.750 C 425.912 36.413, 423.451 43.812, 423.114 44.194 C 422.776 44.576, 419.847 39.288, 416.605 32.444 C 413.363 25.600, 410.438 20.027, 410.105 20.059 C 409.772 20.092, 406.736 25.830, 403.358 32.809 C 399.734 40.296, 396.995 44.885, 396.679 44 C 396.384 43.175, 394.009 35.637, 391.402 27.250 L 386.661 12 377.910 12 L 369.159 12 380.184 45.056 M 457 45.040 L 457 78.081 465.250 77.790 L 473.500 77.500 473.780 64.750 L 474.060 52 485.530 52 L 497 52 497 65.040 L 497 78.081 505.250 77.790 L 513.500 77.500 513.764 44.750 L 514.027 12 505.514 12 L 497 12 497 24.500 L 497 37 485.500 37 L 474 37 474 24.500 L 474 12 465.500 12 L 457 12 457 45.040 M 78 14.935 C 69.599 17.500, 60.756 25.112, 57.382 32.683 C 54.753 38.581, 54.986 51.176, 57.842 57.500 C 60.678 63.782, 66.046 69.398, 72.500 72.836 C 76.955 75.208, 78.590 75.499, 87.500 75.499 C 99.183 75.500, 104.318 73.682, 110.726 67.274 C 117.308 60.692, 119.500 55.002, 119.500 44.500 C 119.500 36.286, 119.229 35.020, 116.401 30 C 112.708 23.446, 105.485 17.566, 98.568 15.484 C 93.401 13.929, 82.269 13.632, 78 14.935 M 146.882 15.321 C 137.850 18.697, 132.366 23.760, 128.436 32.352 C 126.053 37.563, 125.809 39.097, 126.207 46.352 C 126.738 56.025, 129.004 61.135, 135.607 67.552 C 144.293 75.994, 158.872 78.402, 170 73.235 C 177.621 69.696, 177.518 69.991, 173.511 63.154 C 171.527 59.770, 169.726 57, 169.509 57 C 169.292 57, 167.497 57.954, 165.520 59.121 C 160.917 61.836, 152.778 61.402, 148.282 58.201 C 139.416 51.888, 139.948 36.768, 149.241 30.937 C 153.335 28.367, 163.773 28.580, 166.772 31.294 C 167.809 32.232, 168.938 33, 169.281 33 C 169.862 33, 177 21.407, 177 20.463 C 177 20.227, 174.637 18.824, 171.750 17.346 C 165.427 14.109, 152.863 13.086, 146.882 15.321 M 252.882 15.381 C 239.740 20.077, 231.569 31.048, 231.567 44 C 231.566 56.571, 237.772 67.204, 248.377 72.797 C 252.954 75.211, 254.566 75.499, 263.500 75.499 C 272.438 75.500, 274.108 75.202, 279.224 72.689 C 290.437 67.183, 296.468 56.382, 295.802 43 C 295.351 33.951, 293.275 29.224, 286.970 22.893 C 280.930 16.829, 273.455 13.985, 263.712 14.044 C 259.746 14.068, 254.872 14.670, 252.882 15.381 M 182.941 15.750 C 182.909 15.887, 182.856 18.771, 182.824 22.157 L 182.765 28.314 190.382 28.092 L 198 27.869 198 50.935 L 198 74 206 74 L 214 74 214 50.935 L 214 27.869 221.618 28.092 L 229.235 28.314 229.235 22.119 L 229.235 15.924 206.118 15.712 C 193.403 15.595, 182.973 15.613, 182.941 15.750 M 301.998 44.750 L 302 74 309.466 74 L 316.932 74 317.216 63.250 L 317.500 52.500 323.500 61.822 C 326.800 66.949, 329.957 71.805, 330.516 72.613 C 331.312 73.763, 333.531 74.018, 340.756 73.791 L 349.979 73.500 341.175 62.054 L 332.370 50.609 336.435 48.554 C 341.313 46.089, 345 39.609, 345 33.500 C 345 27.927, 341.306 21.012, 337 18.523 C 334.021 16.801, 331.157 16.426, 317.748 16 L 301.996 15.500 301.998 44.750 M 0 44.908 L 0 74 12.822 74 C 28.208 74, 32.910 72.685, 39.858 66.437 C 54.888 52.925, 52.027 29.841, 34 19.165 C 29.768 16.659, 28.622 16.480, 14.750 16.158 L 0 15.817 0 44.908 M 555.620 27.236 C 553.455 27.808, 550.099 29.901, 548.029 31.971 C 536.487 43.513, 544.634 63, 561 63 C 568.520 63, 573.875 59.510, 577.110 52.500 C 580.381 45.413, 579.152 38.223, 573.633 32.155 C 569.315 27.408, 562.264 25.482, 555.620 27.236 M 317 34.500 L 317 42.263 321.078 41.716 C 326.321 41.013, 329 38.573, 329 34.500 C 329 30.427, 326.321 27.987, 321.078 27.284 L 317 26.737 317 34.500 M 13.465 29.230 C 13.180 29.975, 13.070 37.540, 13.223 46.042 L 13.500 61.500 18 61.183 C 24.747 60.707, 29.142 58.086, 31.750 52.980 C 32.987 50.558, 34 46.967, 34 45 C 34 40.144, 30.157 32.910, 26.500 30.882 C 22.217 28.507, 14.136 27.482, 13.465 29.230 M 83 29.171 C 76.550 30.989, 70.981 37.977, 71.022 44.200 C 71.093 54.944, 81.570 63.614, 91.250 60.941 C 98.966 58.811, 104 52.286, 104 44.418 C 104 33.789, 93.546 26.200, 83 29.171 M 258.500 29.470 C 253.464 31.291, 248.316 36.799, 247.479 41.260 C 245.951 49.407, 251.726 58.782, 259.560 60.871 C 270.264 63.726, 280 55.814, 280 44.262 C 280 33.227, 269.012 25.667, 258.500 29.470 M 554.301 32.032 C 546.724 35.869, 543.960 45.711, 548.509 52.654 C 550.966 56.404, 555.981 58.992, 560.800 58.996 C 569.335 59.004, 574.993 53.424, 574.993 45 C 574.993 33.791, 564.192 27.022, 554.301 32.032 M 553.923 37.923 C 548.316 43.530, 550.997 53.158, 558.560 54.577 C 567.491 56.253, 573.650 48.026, 569.490 39.980 C 566.440 34.083, 558.776 33.070, 553.923 37.923" stroke="none" fill="#000000" fill-rule="evenodd"/>
</svg>