<?xml version="1.0" encoding="UTF-8"?>
<svg xmlns="http://www.w3.org/2000/svg" viewBox="0 0 100 100" role="img" aria-label="Konohagakure symbol">
  <g fill="none" stroke="#E85D04" stroke-width="6" stroke-linecap="round" stroke-linejoin="round">
    <path d="M50 18 C62 18 72 28 72 40 C72 52 62 62 50 62 C38 62 28 52 28 40 C28 28 38 18 50 18 Z" />
    <path d="M50 28 C56 28 62 34 62 40 C62 46 56 52 50 52 C44 52 38 46 38 40 C38 34 44 28 50 28 Z" />
    <path d="M50 36 C52.5 36 54 37.5 54 40 C54 42.5 52.5 44 50 44 C47.5 44 46 42.5 46 40 C46 37.5 47.5 36 50 36 Z" />
    <path d="M50 62 L50 82" />
    <path d="M42 74 L58 74" />
  </g>
</svg>
