<?xml version="1.0"?>
<svg width="89" height="41" xmlns="http://www.w3.org/2000/svg" xmlns:svg="http://www.w3.org/2000/svg">
 <g class="layer">
  <title>Layer 1</title>
  <g class="layer" id="svg_8">
   <path d="m19.36,36.21c-0.72,0 -1.25,0.41 -1.25,1.19l0,2.27c0,0.8 0.51,1.19 1.24,1.19c0.71,0 1.27,-0.4 1.27,-1.21l0,-2.27c0,-0.79 -0.56,-1.16 -1.25,-1.16m0.45,3.47c0,0.27 -0.16,0.47 -0.45,0.47c-0.29,0 -0.47,-0.2 -0.47,-0.47l0,-2.31c0,-0.27 0.16,-0.47 0.45,-0.47c0.28,0 0.47,0.17 0.47,0.45l0,2.32l0,0.01z" fill="#6565AE" fill-rule="nonzero" id="svg_64"/>
   <path d="m22.03,40.78l0.8,0l0,-1.95l0.84,0l0.11,-0.69l-0.95,0l0,-1.19l0.85,0c0.04,0 0.09,0.01 0.12,0.05l0.12,0.09l0,-0.83l-1.89,0l0,4.51l0,0.01z" fill="#6565AE" fill-rule="nonzero" id="svg_65"/>
   <path d="m27.04,37.1l0.13,-0.09c0.03,-0.04 0.07,-0.05 0.12,-0.05l0.61,0l0,3.83l0.79,0l0,-3.83l0.6,0c0.05,0 0.09,0.01 0.13,0.05l0.12,0.09l0,-0.81l-2.51,0l0,0.81l0.01,0z" fill="#6565AE" fill-rule="nonzero" id="svg_66"/>
   <path d="m45.98,36.21c-0.71,0 -1.25,0.41 -1.25,1.19l0,2.27c0,0.8 0.51,1.19 1.25,1.19c0.69,0 1.25,-0.4 1.25,-1.21l0,-2.27c0,-0.79 -0.56,-1.16 -1.25,-1.16m0.45,3.47c0,0.27 -0.16,0.47 -0.45,0.47c-0.29,0 -0.47,-0.2 -0.47,-0.47l0,-2.31c0,-0.27 0.16,-0.47 0.47,-0.47c0.27,0 0.45,0.17 0.45,0.45l0,2.32l0,0.01z" fill="#6565AE" fill-rule="nonzero" id="svg_67"/>
   <path d="m42.08,36.21c-0.71,0 -1.25,0.41 -1.25,1.13l0,2.37c0,0.76 0.52,1.13 1.24,1.13c0.68,0 1.16,-0.41 1.16,-1.08l0,-0.67l-0.72,0.28l0,0.35c0,0.24 -0.16,0.41 -0.43,0.41c-0.28,0 -0.47,-0.16 -0.47,-0.47l0,-2.32c0,-0.27 0.15,-0.45 0.47,-0.45c0.27,0 0.43,0.17 0.43,0.44l0,0.61l0.72,-0.28l0,-0.19c0,-0.96 -0.49,-1.28 -1.15,-1.28" fill="#6565AE" fill-rule="nonzero" id="svg_68"/>
   <path d="m36.73,40.1l-0.85,0l0,-1.31l0.75,0l0.09,-0.68l-0.84,0l0,-1.16l0.85,0c0.04,0 0.09,0.01 0.12,0.05l0.12,0.09l0,-0.81l-1.89,0l0,4.49l1.91,0l0,-0.83l-0.12,0.09c-0.04,0.04 -0.08,0.05 -0.13,0.05" fill="#6565AE" fill-rule="nonzero" id="svg_69"/>
   <path d="m51.49,40.54l-0.01,-0.11l-0.79,-4.16l-1.04,0l-0.83,4.27a0.37,0.37 0 0 1 -0.05,0.11l-0.13,0.13l0.85,0l0.11,-0.61l1.07,0l0.11,0.61l0.91,0l-0.13,-0.13c-0.03,-0.03 -0.04,-0.07 -0.05,-0.11m-1.77,-1.05l0.4,-2.31l0.03,0l0.4,2.31l-0.83,0z" fill="#6565AE" fill-rule="nonzero" id="svg_70"/>
   <path d="m33.4,36.41l0.11,-0.13l-0.95,0l0,1.87l-0.87,0l0,-1.87l-0.95,0l0.11,0.13c0.03,0.03 0.04,0.07 0.04,0.12l0,4.01c0,0.04 -0.01,0.08 -0.04,0.12l-0.11,0.12l0.95,0l0,-1.92l0.87,0l0,1.92l0.95,0l-0.11,-0.12a0.21,0.21 0 0 1 -0.05,-0.12l0,-4.01c0,-0.05 0.03,-0.09 0.05,-0.12" fill="#6565AE" fill-rule="nonzero" id="svg_71"/>
   <path d="m56.62,37.1l0.12,-0.09c0.04,-0.04 0.08,-0.05 0.13,-0.05l0.6,0l0,3.83l0.8,0l0,-3.83l0.6,0c0.04,0 0.09,0.01 0.12,0.05l0.12,0.09l0,-0.81l-2.49,0l0,0.81z" fill="#6565AE" fill-rule="nonzero" id="svg_72"/>
   <path d="m54.17,37.97c-0.24,-0.21 -0.49,-0.45 -0.49,-0.69c0,-0.25 0.13,-0.43 0.39,-0.43c0.23,0 0.35,0.15 0.4,0.36c0.01,0.04 0.03,0.08 0.03,0.12c0.01,0.08 0.04,0.25 0.04,0.36l0.71,-0.25l0,-0.05c-0.03,-0.89 -0.55,-1.17 -1.13,-1.17c-0.81,0 -1.23,0.52 -1.23,1.12c0,0.52 0.28,0.83 0.68,1.21l0.48,0.47c0.27,0.25 0.45,0.47 0.45,0.72c0,0.23 -0.09,0.47 -0.4,0.47c-0.35,0 -0.44,-0.29 -0.45,-0.63c0,0 -0.01,-0.24 -0.01,-0.29l-0.76,0.27l0,0.05c0.01,0.25 0.03,0.49 0.13,0.68c0.2,0.36 0.57,0.57 1.08,0.57c0.79,0 1.24,-0.51 1.24,-1.16c0,-0.49 -0.25,-0.88 -0.69,-1.29l-0.45,-0.43l-0.02,-0.01z" fill="#6565AE" fill-rule="nonzero" id="svg_73"/>
   <path d="m18.11,3.51l3.95,-0.67l0,29.56l-3.95,0l0,-28.89z" fill="#6565AE" fill-rule="nonzero" id="svg_74"/>
   <path d="m62.21,3.96l-5.95,-1l0.71,0.8c0.15,0.16 0.23,0.36 0.23,0.57l0,28.07l4.95,0c2.8,0 4.93,-1.73 4.93,-5.2l0,-17.4c0,-3.24 -2.13,-5.37 -4.87,-5.84m0.92,22.33c0,0.92 -0.28,1.69 -1.31,1.67l-0.71,0l0,-20.07l0.71,0.12c1.01,0.17 1.31,0.84 1.31,1.68l0,16.6z" fill="#6565AE" fill-rule="nonzero" id="svg_75"/>
   <path d="m31.08,27.97l-3.55,0.12l5.49,-27.12l-9.51,1.61l0,5.11l0.67,-0.84c0.12,-0.16 0.29,-0.27 0.48,-0.29l3.45,-0.53l-5.31,26.37l8.95,0l0.61,-5.51l-0.72,0.81c-0.15,0.17 -0.36,0.27 -0.57,0.27" fill="#6565AE" fill-rule="nonzero" id="svg_76"/>
   <path d="m12.15,4.51l0.67,0.44c0.24,0.16 0.36,0.43 0.35,0.72l-0.89,14.8l-0.11,0.01l-1.81,-15.67l-3.27,0.55l-1.68,15.57l-0.11,0l-1.24,-13.8c-0.03,-0.24 0.08,-0.45 0.23,-0.64l0.68,-0.77l-4.97,0.84l3.04,25.84l4.12,0l1.55,-13.28l0.15,-0.01l1.59,13.29l4.39,0l2.35,-28.75l-5.01,0.85l-0.03,0.01z" fill="#6565AE" fill-rule="nonzero" id="svg_77"/>
   <path d="m54.41,21.85c0.85,-1.01 1.39,-2.35 1.39,-3.99l0,-9.99c0,-3.23 -2.17,-5.37 -4.91,-5.83l-6.13,-1.04l0.72,0.8c0.15,0.17 0.23,0.36 0.23,0.57l0,30.01l3.95,0l0,-8.28l0.99,-0.17c0.09,-0.01 0.17,-0.04 0.27,-0.05l1.09,8.51l3.96,0l-1.55,-10.55l-0.01,0.01zm-2.68,-4.04c0,0.92 -0.27,1.72 -1.27,1.89c-0.43,0.08 -0.81,0.13 -0.81,0.13l0,-13.67l0.77,0.13c1.01,0.17 1.31,0.85 1.31,1.68l0,9.83l0,0.01z" fill="#6565AE" fill-rule="nonzero" id="svg_78"/>
   <path d="m73.94,16.56c-0.64,-1.28 -1.92,-4.08 -1.92,-5.73c0,-1 0.17,-1.33 0.95,-1.21c0.85,0.12 1.01,1.65 1.04,3.71l0.01,0.8l3.57,-1.15c-0.09,-4.56 -1.39,-6.71 -4.61,-7.24c-3.48,-0.57 -4.8,1.89 -4.8,4.92c0,2.87 1.17,5.67 2.28,7.95l1.77,3.61c0.87,1.75 1.41,3.08 1.61,4.17c0.15,0.85 -0.09,2.24 -0.8,2.23c-0.92,-0.01 -1.24,-1.16 -1.24,-4.31l-3.72,1.19c0,5.23 2.05,7.13 4.89,7.13c3.27,0 4.76,-2.64 4.76,-5.43c0,-2.84 -1.35,-5.69 -2.49,-7.97l-1.31,-2.67l0.01,0z" fill="#6565AE" fill-rule="nonzero" id="svg_79"/>
   <path d="m38.8,0l-2.44,0.41l-3.57,31.99l4.03,0l1.91,-22.77l0.15,0l1.91,22.77l4.09,0l-3.64,-31.99l-2.43,-0.41l-0.01,0z" fill="#6565AE" fill-rule="nonzero" id="svg_80"/>
   <path d="m79.73,8.4l0,-0.56l3.81,0l0,0.56l-1.59,0l0,4.29l-0.65,0l0,-4.29l-1.57,0zm8.23,-0.56l0.79,0l0,4.85l-0.61,0l0,-3.91l-1.48,3.23l-0.56,0l-1.47,-3.16l0,3.84l-0.63,0l0,-4.85l0.79,0l1.6,3.49l1.57,-3.49z" fill="#6565AE" fill-rule="nonzero" id="svg_81"/>
  </g>
 </g>
</svg>